<?xml version="1.0" encoding="utf-8"?>
<!-- Generator: Adobe Illustrator 23.0.2, SVG Export Plug-In . SVG Version: 6.00 Build 0)  -->
<svg version="1.1" id="Camada_1" xmlns="http://www.w3.org/2000/svg" xmlns:xlink="http://www.w3.org/1999/xlink" x="0px" y="0px"
	 viewBox="0 0 841.89 595.28" style="enable-background:new 0 0 841.89 595.28;" xml:space="preserve">
<style type="text/css">
	.st0{fill:#ECC300;}
	.st1{fill:#FFFFFF;}
	.st2{fill:#911A1F;}
	.st3{fill:#606060;}
	.st4{fill:#EBBF00;}
</style>
<g>
	<polygon class="st0" points="401.94,232.42 408.96,193.39 307.95,193.39 300.85,232.42 340.17,232.42 320.41,342.68 365.68,342.68 
		385.44,232.42 	"/>
	<path class="st1" d="M622.42,305.05l-15.95-16.97c-4.6,6.11-9.43,10.52-14.48,13.22c-5.05,2.7-10.2,4.05-15.44,4.05
		c-5.5,0-10.33-1.21-14.48-3.63c-4.16-2.42-7.38-5.83-9.69-10.24c-2.3-4.41-3.45-9.52-3.45-15.36c0-6.68,0.89-12.8,2.68-18.34
		c1.79-5.54,4.28-10.34,7.48-14.4c3.19-4.05,7-7.18,11.41-9.38c4.41-2.2,9.3-3.31,14.67-3.31c6.14,0,11.44,1.53,15.92,4.58
		c4.47,3.06,8.12,7.36,10.93,12.9l26.99-23.48l2.21-10.68c-4.69-6.88-10.96-12.35-18.84-16.39c-9.97-5.12-21.42-7.68-34.34-7.68
		c-12.4,0-23.79,2.17-34.14,6.5c-10.36,4.34-19.31,10.49-26.85,18.45c-7.55,7.96-13.4,17.42-17.55,28.37
		c-4.16,10.95-6.23,22.96-6.23,36.04c0,13.22,2.84,24.85,8.54,34.87c5.69,10.02,13.71,17.85,24.07,23.46
		c10.36,5.61,22.44,8.42,36.25,8.42c12.4,0,23.62-2.17,33.66-6.5c3.71-1.6,7.3-3.67,10.76-6.2L622.42,305.05z"/>
	<path class="st2" d="M311.81,211.42l8.08-18.03H306.8l-11.03,17.98c-1.62,2.63-2.76,4.82-3.41,6.55c-0.65,1.73-0.98,3.57-0.98,5.51
		c0,3.67,1.06,6.65,3.18,8.94c2.12,2.29,4.89,3.43,8.32,3.43c3.68,0,6.81-1.32,9.39-3.95c2.59-2.63,3.88-6.13,3.88-10.5
		c0-3.6-1.07-6.56-3.22-8.89C312.57,212.08,312.19,211.74,311.81,211.42z"/>
	<path class="st1" d="M226.32,285.1h56.88l6.52-36.26h-56.86l3.15-17.49h54.21c-1.56-2.13-2.35-4.77-2.35-7.93
		c0-1.94,0.33-3.78,0.98-5.51c0.65-1.73,1.79-3.91,3.41-6.55l11.03-17.98H198.42l-26.85,149.29H283.2l6.91-37.96h-67.33
		L226.32,285.1z"/>
	<polygon class="st0" points="645.41,213.42 736.58,265.92 623.45,319.62 	"/>
	<g>
		<polygon class="st1" points="688.63,232.01 695.58,193.39 650.31,193.39 647.61,208.38 		"/>
		<polygon class="st1" points="737.39,193.39 726.52,253.83 748.15,266.28 722.05,278.67 710.54,342.68 755.81,342.68 
			782.66,193.39 		"/>
		<polygon class="st1" points="626.84,323.87 623.45,342.68 668.72,342.68 676.33,300.37 		"/>
	</g>
	<path class="st1" d="M497.82,304.72H439l3.54-19.62h52.18c-0.06-1.43-0.1-2.87-0.1-4.34c0-11.36,1.41-21.99,4.19-31.92h-49.72
		l3.15-17.49h53.22c4.14-8.47,9.33-16.01,15.54-22.66l2.78-15.3H414.64l-26.85,149.29h111.64l4.29-23.61
		C501.25,314.57,499.29,309.79,497.82,304.72z"/>
	<polygon class="st3" points="61.41,336.9 763.98,327.37 802.63,367.1 	"/>
	<polygon class="st4" points="180.93,256.94 141.75,256.94 146.34,231.35 185.53,231.35 192.36,193.39 107.98,193.39 81.12,342.68 
		126.39,342.68 134.95,294.91 174.1,294.91 	"/>
	<polygon class="st1" points="61.41,342.97 763.98,333.43 802.63,373.16 	"/>
</g>
</svg>
